PathFileType  4	(X/Y/Z) C:\Users\antoi\Documents\MyRepositories\mobilecap\ResultsAnalysis
DataRate	CameraRate	NumFrames	NumMarkers	Units	OrigDataRate	OrigDataStartFrame	OrigNumFrames
100.0	100.0	4	55	mm	100.0	301	800
Frame#	Time	r_knee			r_shank_antsup			r_ankle			r_calc			r_5meta			r_toe			L_knee			L_shank_antsup			L_ankle			L_calc			L_5meta			L_toe			r_mknee			r_mankle			L_mknee			L_mankle			r_sh2			r_sh3			r_sh4			L_sh2			L_sh3			r_thigh1			r_thigh2			r_thigh3			r_thigh4			r_thigh5			L_thigh1			L_thigh2			L_thigh3			L_thigh4			r.ASIS			r.PSIS			L.ASIS			L.PSIS			C7			R_Shoulder			L_Shoulder			R_Sternum			L_Sternum			R_humerus			R_elbow_med			R_elbow_lat			R_forearm			R_wrist_radius			R_wrist_ulna			L_humerus			L_elbow_med			L_elbow_lat			L_forearm			L_wrist_radius			L_wrist_ulna			R_HJC			L_HJC			R_HJC_reg			L_HJC_reg			
		X1	Y1	Z1	X2	Y2	Z2	X3	Y3	Z3	X4	Y4	Z4	X5	Y5	Z5	X6	Y6	Z6	X7	Y7	Z7	X8	Y8	Z8	X9	Y9	Z9	X10	Y10	Z10	X11	Y11	Z11	X12	Y12	Z12	X13	Y13	Z13	X14	Y14	Z14	X15	Y15	Z15	X16	Y16	Z16	X17	Y17	Z17	X18	Y18	Z18	X19	Y19	Z19	X20	Y20	Z20	X21	Y21	Z21	X22	Y22	Z22	X23	Y23	Z23	X24	Y24	Z24	X25	Y25	Z25	X26	Y26	Z26	X27	Y27	Z27	X28	Y28	Z28	X29	Y29	Z29	X30	Y30	Z30	X31	Y31	Z31	X32	Y32	Z32	X33	Y33	Z33	X34	Y34	Z34	X35	Y35	Z35	X36	Y36	Z36	X37	Y37	Z37	X38	Y38	Z38	X39	Y39	Z39	X40	Y40	Z40	X41	Y41	Z41	X42	Y42	Z42	X43	Y43	Z43	X44	Y44	Z44	X45	Y45	Z45	X46	Y46	Z46	X47	Y47	Z47	X48	Y48	Z48	X49	Y49	Z49	X50	Y50	Z50	X51	Y51	Z51	X52	Y52	Z52	X53	Y53	Z53	X54	Y54	Z54	X55	Y55	Z55	

301	3.00000000	-216.88369	607.13964	-670.55631	-207.75761	464.63978	-662.02334	-286.82331	103.47195	-629.38204	-346.91903	72.25414	-689.30740	-151.55159	40.25895	-599.17028	-113.60477	64.73708	-653.02234	-241.11609	608.25924	-1113.50460	-206.75134	415.75386	-1122.01290	-294.78903	115.99463	-1160.33369	-349.95347	74.60696	-1102.52080	-150.73903	31.82543	-1194.68534	-112.38290	65.32641	-1136.31531	-238.32304	587.39949	-788.92642	-253.84215	128.46562	-727.79915	-233.74263	579.86257	-993.38673	-251.96337	125.69128	-1068.76473	-217.93912	351.81014	-654.95049	-269.34298	472.92551	-620.73205	-283.97589	362.70361	-605.54156	-277.95771	435.14632	-1169.77095	-293.34905	316.00039	-1169.64547	-134.74420	895.54962	-677.48529	-139.66676	784.83480	-671.09208	-203.08176	763.76424	-657.01146	-246.72843	901.39099	-693.87605	-252.36013	782.94842	-675.90504	-141.82416	893.47118	-1090.99611	-159.18986	761.29856	-1102.50573	-247.29820	913.55651	-1097.73761	-265.34190	776.11435	-1112.32573	-69.77155	1170.63805	-762.41931	-262.09137	1204.67613	-828.09992	-106.49195	1163.46504	-1033.94668	-274.00721	1208.24732	-919.94741	-268.74079	1679.36851	-889.32733	-185.47433	1658.61479	-717.96777	-222.05559	1667.41900	-1065.93737	-107.77654	1630.27524	-871.46778	-111.43144	1632.27039	-922.69127	-186.90028	1391.61588	-635.65098	-265.64655	1279.87379	-670.97408	-261.03598	1301.76176	-602.44781	-183.54829	1108.87463	-551.23647	-155.45412	1016.70408	-540.10216	-189.81387	1017.93168	-521.85303	-198.36624	1375.19626	-1135.00485	-275.66104	1295.46676	-1085.40407	-262.37834	1295.44168	-1159.61592	-182.11582	1110.12011	-1206.20827	-152.04805	1033.75017	-1206.83765	-181.24957	1034.81508	-1227.89282	-153.78898	1076.97350	-788.45423	-185.28560	1076.98990	-983.40272	-144.52770	1080.50486	-795.58807	-167.78529	1087.47631	-974.85317	
302	3.01000000	-216.72272	607.30341	-670.24195	-207.77646	464.65996	-662.02304	-286.82058	103.43092	-629.37187	-346.91742	72.24852	-689.28589	-151.55019	40.25701	-599.16357	-113.60522	64.74533	-653.01907	-241.09998	608.25240	-1113.48272	-206.71609	415.73946	-1122.00086	-294.79334	116.00484	-1160.32307	-349.96180	74.60931	-1102.48117	-150.73656	31.83472	-1194.68692	-112.38385	65.30489	-1136.27358	-238.31773	587.40889	-788.92480	-253.83501	128.46594	-727.73928	-233.72879	579.88463	-993.33552	-251.96482	125.67678	-1068.75143	-217.80035	351.65219	-654.92366	-269.32239	472.92630	-620.69829	-283.82374	362.75219	-605.34454	-277.94464	435.14986	-1169.76400	-293.36525	316.00052	-1169.63798	-134.76466	895.55218	-677.44620	-139.65701	784.82215	-671.03274	-203.12642	763.76395	-656.96402	-246.70769	901.46893	-693.85605	-252.35604	782.96798	-675.89034	-141.84103	893.47641	-1090.98912	-159.19356	761.30804	-1102.52293	-247.31100	913.56257	-1097.72738	-265.35760	776.12133	-1112.32563	-69.83712	1170.57080	-762.36745	-262.13183	1204.71915	-828.14161	-106.50221	1163.47934	-1033.93670	-274.01333	1208.24546	-919.92008	-268.75440	1679.36481	-889.34636	-185.47800	1658.62194	-717.97983	-222.11691	1667.37568	-1065.89070	-107.79105	1630.28658	-871.50534	-111.47586	1632.25582	-922.69215	-186.88494	1391.61410	-635.62620	-265.53537	1279.86455	-670.89807	-261.04571	1301.78014	-602.44808	-183.48307	1108.88638	-551.28702	-155.35287	1016.70718	-540.20137	-189.78595	1017.93853	-521.84942	-198.45124	1375.15945	-1135.00277	-275.72566	1295.44921	-1085.38175	-262.47356	1295.43629	-1159.61533	-182.28390	1110.09862	-1206.24461	-152.26964	1033.68222	-1206.83297	-181.42884	1034.69352	-1227.80080	-153.87545	1076.94537	-788.45683	-185.32578	1077.00702	-983.41275	-144.65333	1080.56794	-795.51295	-167.86480	1087.45724	-974.80815	
303	3.02000000	-216.60417	607.39465	-670.05528	-207.78567	464.66904	-661.99943	-286.82478	103.42168	-629.36482	-346.91177	72.26520	-689.30498	-151.54714	40.25666	-599.16087	-113.60335	64.75174	-652.95920	-241.08116	608.25451	-1113.46226	-206.69154	415.75138	-1121.99576	-294.79999	116.03731	-1160.31824	-349.97179	74.62333	-1102.40801	-150.73722	31.85090	-1194.69137	-112.38782	65.31559	-1136.26193	-238.44946	587.35666	-788.82383	-253.84383	128.56246	-727.78429	-233.71368	579.96063	-993.25265	-251.97962	125.66377	-1068.76818	-217.73400	351.62928	-654.91172	-269.32987	472.92285	-620.68203	-283.85526	362.68449	-605.31610	-277.93435	435.15740	-1169.75999	-293.37217	316.00677	-1169.62108	-134.75018	895.58945	-677.39287	-139.65986	784.82776	-671.00727	-203.10057	763.80536	-656.87186	-246.74296	901.44982	-693.84396	-252.35826	782.98789	-675.88140	-141.85207	893.49062	-1090.97159	-159.18819	761.32728	-1102.52660	-247.33159	913.57071	-1097.70797	-265.37464	776.14919	-1112.32625	-69.83280	1170.63711	-762.39912	-262.34996	1204.98647	-828.46453	-106.50673	1163.47611	-1033.92362	-274.06665	1208.24430	-919.85210	-268.76609	1679.36976	-889.35259	-185.45260	1658.62959	-717.99985	-222.21488	1667.34218	-1065.87364	-107.79598	1630.29696	-871.52990	-111.49992	1632.24848	-922.71987	-186.85966	1391.63135	-635.58992	-265.45894	1279.85361	-670.86008	-261.05138	1301.81051	-602.41452	-183.40275	1108.92489	-551.30257	-155.29731	1016.74072	-540.26584	-189.75598	1017.94196	-521.82702	-198.51767	1375.13423	-1135.03246	-275.80829	1295.44590	-1085.40190	-262.58735	1295.43725	-1159.60135	-182.44194	1110.04687	-1206.18987	-152.45250	1033.63493	-1206.81710	-181.61575	1034.63513	-1227.74741	-154.01157	1077.07949	-788.45022	-185.39929	1077.03219	-983.41617	-144.95614	1081.02770	-795.33947	-167.94375	1087.41598	-974.65286	
304	3.03000000	-216.66764	607.36143	-670.08636	-207.79046	464.66390	-661.92565	-286.79643	103.44969	-629.29486	-346.91093	72.28517	-689.31176	-151.55165	40.25257	-599.16437	-113.60278	64.75542	-652.91393	-241.05867	608.27023	-1113.45905	-206.66256	415.76783	-1121.98469	-294.81460	116.07362	-1160.31329	-349.97117	74.64480	-1102.38441	-150.74147	31.86553	-1194.68299	-112.39040	65.35145	-1136.26468	-238.56342	587.31949	-788.75784	-253.86501	128.56786	-727.77684	-233.64947	580.01019	-993.19311	-251.97798	125.64605	-1068.77168	-217.72618	351.64299	-654.92773	-269.38672	472.90099	-620.66474	-283.93829	362.62479	-605.38453	-277.93015	435.16508	-1169.75364	-293.34770	316.01473	-1169.57044	-134.72642	895.61028	-677.38398	-139.67317	784.83741	-671.03679	-203.08921	763.86031	-656.78170	-246.79194	901.36995	-693.83115	-252.36959	782.97731	-675.85058	-141.85802	893.52242	-1090.96087	-159.18613	761.36165	-1102.51542	-247.35555	913.57875	-1097.69473	-265.38266	776.17491	-1112.29681	-69.77790	1170.75994	-762.46205	-262.51201	1205.17105	-828.64543	-106.51678	1163.46424	-1033.93580	-274.13845	1208.27063	-919.77135	-268.76190	1679.38043	-889.33000	-185.40899	1658.62868	-718.03321	-222.28063	1667.32946	-1065.89901	-107.80790	1630.29680	-871.55372	-111.49147	1632.24061	-922.77312	-186.82304	1391.65536	-635.60465	-265.45133	1279.85285	-670.86797	-261.01228	1301.81870	-602.34489	-183.34923	1108.96379	-551.29226	-155.24725	1016.77761	-540.29942	-189.69106	1017.94914	-521.83026	-198.57961	1375.11422	-1135.04932	-275.89135	1295.44514	-1085.39561	-262.70276	1295.42264	-1159.53797	-182.61055	1109.96452	-1206.10412	-152.59538	1033.58244	-1206.78107	-181.83008	1034.63925	-1227.70334	-154.05443	1077.22156	-788.42601	-185.45773	1077.05086	-983.38940	-145.08426	1081.31568	-795.27130	-167.95945	1087.40983	-974.58340	
